# xmcd
#
# Track frame offsets: 
#        150
#        30177
#        51350
#        77795
#        104408
#
# Disc length: 1845 seconds
#
# Revision: 0
# Processed by: cddbd v1.5.2PL0 Copyright (c) Steve Scherf et al.
# Submitted via: ExactAudioCopy v0.99pb3
#
DISCID=34073305
DTITLE=Hit Dog Hollar - Ruckus
DYEAR=1900
DGENRE=Heavy Swamp Rock
TTITLE0=The Battle of San Pasqual
TTITLE1=High John the Conqueror
TTITLE2=Shenandoah
TTITLE3=White Flag
TTITLE4=Westward Expansion
EXTD=
EXTT0=
EXTT1=
EXTT2=
EXTT3=
EXTT4=
PLAYORDER=
